<svg width="93" height="45" viewBox="0 0 93 45" fill="none" xmlns="http://www.w3.org/2000/svg">
<path d="M72.8919 23.3439H76.1277L82.2092 39.5662L88.2763 23.3439H91.5121L83.4804 44.3765H80.9091L72.8919 23.3439ZM71.4185 23.3439H74.4953L75.0298 37.3849V44.3765H71.4185V23.3439ZM89.9087 23.3439H93V44.3765H89.3742V37.3849L89.9087 23.3439Z" fill="#060606"/>
<path d="M60.5123 36.5326H55.0374V33.658H60.5123C61.4657 33.658 62.2361 33.5039 62.8236 33.1957C63.411 32.8875 63.8396 32.4638 64.1092 31.9245C64.3885 31.3756 64.5281 30.7496 64.5281 30.0466C64.5281 29.3821 64.3885 28.761 64.1092 28.1831C63.8396 27.5957 63.411 27.1238 62.8236 26.7675C62.2361 26.4112 61.4657 26.233 60.5123 26.233H56.1497V44.3765H52.5239V23.3439H60.5123C62.1398 23.3439 63.5218 23.6328 64.6581 24.2106C65.8041 24.7788 66.6757 25.5685 67.2728 26.5797C67.8698 27.5812 68.1684 28.7272 68.1684 30.0177C68.1684 31.3756 67.8698 32.5409 67.2728 33.5135C66.6757 34.4862 65.8041 35.2325 64.6581 35.7526C63.5218 36.2726 62.1398 36.5326 60.5123 36.5326Z" fill="#060606"/>
<path d="M49.3072 22.1883L47.5 44.3765L43.5 44.3765L42 21L49.3072 22.1883Z" fill="#1F4B43"/>
<path d="M39.4841 28.7465V31.2889H30.6724V28.7465H39.4841ZM33.2148 24.9184H36.6961V40.0573C36.6961 40.5388 36.7635 40.9096 36.8984 41.1696C37.0428 41.42 37.2402 41.5885 37.4906 41.6752C37.741 41.7619 38.0347 41.8052 38.3718 41.8052C38.6126 41.8052 38.8437 41.7908 39.0652 41.7619C39.2867 41.733 39.4648 41.7041 39.5997 41.6752L39.6141 44.3332C39.3252 44.4198 38.9881 44.4969 38.6029 44.5643C38.2273 44.6317 37.794 44.6654 37.3028 44.6654C36.5035 44.6654 35.7957 44.5258 35.1794 44.2465C34.563 43.9576 34.0815 43.4905 33.7348 42.8453C33.3881 42.2001 33.2148 41.343 33.2148 40.274V24.9184Z" fill="#060606"/>
<path d="M23.3486 44.6654C22.1929 44.6654 21.148 44.4776 20.2139 44.102C19.2894 43.7168 18.4997 43.1824 17.8448 42.4986C17.1996 41.8148 16.7036 41.0107 16.357 40.0862C16.0103 39.1617 15.8369 38.165 15.8369 37.096V36.5182C15.8369 35.2951 16.0151 34.1876 16.3714 33.1957C16.7277 32.2038 17.2237 31.3563 17.8593 30.6533C18.4949 29.9407 19.246 29.3966 20.1128 29.021C20.9795 28.6454 21.9185 28.4576 22.9296 28.4576C24.0468 28.4576 25.0242 28.6454 25.8621 29.021C26.6999 29.3966 27.3933 29.9262 27.9422 30.61C28.5008 31.2841 28.9149 32.0882 29.1845 33.0224C29.4638 33.9565 29.6035 34.987 29.6035 36.1137V37.6016H17.527V35.1025H26.1654V34.8281C26.1462 34.2021 26.021 33.6146 25.7898 33.0657C25.5684 32.5168 25.2265 32.0738 24.7642 31.7367C24.302 31.3997 23.6856 31.2311 22.9152 31.2311C22.3374 31.2311 21.8222 31.3563 21.3695 31.6067C20.9265 31.8475 20.5558 32.199 20.2572 32.6612C19.9587 33.1235 19.7276 33.682 19.5638 34.3369C19.4098 34.9821 19.3327 35.7092 19.3327 36.5182V37.096C19.3327 37.7797 19.4242 38.4153 19.6072 39.0028C19.7998 39.5806 20.0791 40.0862 20.445 40.5196C20.811 40.9529 21.254 41.2948 21.774 41.5452C22.294 41.786 22.8863 41.9063 23.5508 41.9063C24.3886 41.9063 25.135 41.7378 25.7898 41.4007C26.4447 41.0637 27.0129 40.587 27.4944 39.9706L29.329 41.7474C28.9919 42.2386 28.5537 42.7105 28.0145 43.1631C27.4752 43.6061 26.8155 43.9672 26.0354 44.2465C25.265 44.5258 24.3694 44.6654 23.3486 44.6654Z" fill="#060606"/>
<path d="M7.39609 22.1883L9.02842 33.3835L13.5595 22.1883H19.7229L10.8486 36.6337V44.3765H7.19385V36.6337L0 22.1883H7.39609Z" fill="#1F4B43"/>
<path fill-rule="evenodd" clip-rule="evenodd" d="M49.3072 22.1883H41.9112L24.6536 6.63182L7.39609 22.1883H0L24.6536 0L49.3072 22.1883Z" fill="#1F4B43"/>
<path d="M12.3268 4.46231V0H4.93072V11.0941L12.3268 4.46231Z" fill="black"/>
</svg>
